<?xml version="1.0" encoding="iso-8859-1"?>
<!-- Uploaded to: SVG Repo, www.svgrepo.com, Generator: SVG Repo Mixer Tools -->
<svg height="800px" width="800px" version="1.1" id="Layer_1" xmlns="http://www.w3.org/2000/svg" xmlns:xlink="http://www.w3.org/1999/xlink" 
	 viewBox="0 0 504.914 504.914" xml:space="preserve">
<g transform="translate(1)">
	<polygon style="fill:#E2E3E5;" points="144.371,462.4 8.143,494.4 41.057,359.086 370.2,29.029 474.429,132.343 	"/>
	<path style="fill:#F0F0F0;" d="M474.429,29.029c-29.257-28.343-74.971-28.343-104.229,0l103.314,103.314
		C502.771,104,502.771,57.371,474.429,29.029"/>
	<path style="fill:#CCCCCC;" d="M142.543,462.4L142.543,462.4l6.4-58.514l-58.514,6.4l6.4-58.514c0,0-50.286,5.486-54.857,6.4l0,0
		L8.143,494.4L142.543,462.4z"/>
	<g>
		<path style="fill:#B6B6B6;" d="M8.143,503.543c-2.743,0-4.571-0.914-6.4-2.743S-1,495.314-1,492.571l32-136.229
			c0-1.829,0.914-2.743,2.743-4.571L363.8,22.629c1.829-1.829,3.657-2.743,6.4-2.743l0,0c2.743,0,4.571,0.914,6.4,2.743
			l103.314,103.314c3.657,3.657,3.657,9.143,0,12.8L150.771,468.8c-0.914,0.914-2.743,1.829-4.571,2.743l-135.314,32
			C9.971,503.543,9.057,503.543,8.143,503.543z M49.286,363.657L20.943,482.514L139.8,454.171l321.829-321.829l-90.514-90.514
			L49.286,363.657z M144.371,462.4L144.371,462.4L144.371,462.4z"/>
		<path style="fill:#B6B6B6;" d="M92.257,419.429c-4.571,0-8.229-3.657-9.143-8.229c-0.914-4.571,2.743-9.143,8.229-10.057
			l58.514-6.4c4.571-0.914,9.143,2.743,10.057,8.229c0.914,4.571-2.743,9.143-8.229,10.057l-58.514,6.4
			C93.171,419.429,93.171,419.429,92.257,419.429z"/>
		<path style="fill:#B6B6B6;" d="M8.143,503.543c-2.743,0-4.571-0.914-6.4-2.743c-3.657-3.657-3.657-9.143,0-12.8l30.171-30.171
			c3.657-3.657,9.143-3.657,12.8,0s3.657,9.143,0,12.8L14.543,500.8C13.629,502.629,10.886,503.543,8.143,503.543z"/>
		<path style="fill:#B6B6B6;" d="M474.429,144.229c-2.743,0-4.571-0.914-6.4-2.743L363.8,38.171c-1.829-1.829-2.743-3.657-2.743-6.4
			s0.914-4.571,2.743-6.4c32-32,84.114-32,116.114,0s32,84.114,0,116.114C479,143.314,476.257,144.229,474.429,144.229z
			 M383.914,31.771l89.6,89.6c19.2-24.686,16.457-61.257-6.4-83.2C445.171,15.314,408.6,12.571,383.914,31.771z"/>
		<path style="fill:#B6B6B6;" d="M422.314,193.6c-2.743,0-4.571-0.914-6.4-2.743L312.6,87.543c-3.657-3.657-3.657-9.143,0-12.8
			c3.657-3.657,9.143-3.657,12.8,0l103.314,103.314c3.657,3.657,3.657,9.143,0,12.8C426.886,192.686,425.057,193.6,422.314,193.6z"
			/>
		<path style="fill:#B6B6B6;" d="M447.914,167.086c-2.743,0-4.571-0.914-6.4-2.743L338.2,61.029c-3.657-3.657-3.657-9.143,0-12.8
			s9.143-3.657,12.8,0l103.314,103.314c3.657,3.657,3.657,9.143,0,12.8C452.486,166.171,450.657,167.086,447.914,167.086z"/>
		<path style="fill:#B6B6B6;" d="M98.657,360.914c-2.743,0-4.571-0.914-6.4-2.743c-3.657-3.657-3.657-9.143,0-12.8l206.629-206.629
			c3.657-3.657,9.143-3.657,12.8,0c3.657,3.657,3.657,9.143,0,12.8L105.971,359.086C104.143,360,101.4,360.914,98.657,360.914z"/>
		<path style="fill:#B6B6B6;" d="M150.771,413.029c-2.743,0-4.571-0.914-6.4-2.743c-3.657-3.657-3.657-9.143,0-12.8L351,190.857
			c3.657-3.657,9.143-3.657,12.8,0c3.657,3.657,3.657,9.143,0,12.8L157.171,410.286
			C155.343,412.114,153.514,413.029,150.771,413.029z"/>
		<path style="fill:#B6B6B6;" d="M8.143,503.543c-2.743,0-4.571-0.914-6.4-2.743S-1,495.314-1,492.571l32-135.314
			c0-1.829,0.914-2.743,2.743-4.571s3.657-2.743,5.486-2.743c5.486-0.914,54.857-6.4,54.857-6.4c2.743,0,5.486,0.914,7.314,2.743
			c1.829,1.829,2.743,4.571,2.743,7.314l-5.486,46.629l46.629-5.486c2.743,0,5.486,0.914,7.314,2.743s2.743,4.571,2.743,7.314
			l-6.4,56.686c0,0.914,0,2.743,0,3.657c-0.914,2.743-3.657,5.486-6.4,6.4l-131.657,32C9.971,503.543,9.057,503.543,8.143,503.543z
			 M48.371,366.4L20.943,481.6L133.4,455.086l4.571-41.143l-46.629,5.486c-2.743,0-5.486-0.914-7.314-2.743
			c-1.829-1.829-3.657-4.571-2.743-7.314l5.486-46.629C74.886,363.657,57.514,365.486,48.371,366.4z"/>
	</g>
</g>
</svg>